<svg width="34" height="34" viewBox="0 0 34 34" fill="none" xmlns="http://www.w3.org/2000/svg">
<path fill-rule="evenodd" clip-rule="evenodd" d="M8.5 23.375H4.25V29.75H8.5V23.375ZM19.125 14.875H14.875V29.75H19.125V14.875ZM29.75 4.25H25.5V29.75H29.75V4.25ZM25.5 2.125C24.9364 2.125 24.3959 2.34888 23.9974 2.7474C23.5989 3.14591 23.375 3.68641 23.375 4.25V29.75C23.375 30.3136 23.5989 30.8541 23.9974 31.2526C24.3959 31.6511 24.9364 31.875 25.5 31.875H29.75C30.3136 31.875 30.8541 31.6511 31.2526 31.2526C31.6511 30.8541 31.875 30.3136 31.875 29.75V4.25C31.875 3.68641 31.6511 3.14591 31.2526 2.7474C30.8541 2.34888 30.3136 2.125 29.75 2.125H25.5ZM12.75 14.875C12.75 14.3114 12.9739 13.7709 13.3724 13.3724C13.7709 12.9739 14.3114 12.75 14.875 12.75H19.125C19.6886 12.75 20.2291 12.9739 20.6276 13.3724C21.0261 13.7709 21.25 14.3114 21.25 14.875V29.75C21.25 30.3136 21.0261 30.8541 20.6276 31.2526C20.2291 31.6511 19.6886 31.875 19.125 31.875H14.875C14.3114 31.875 13.7709 31.6511 13.3724 31.2526C12.9739 30.8541 12.75 30.3136 12.75 29.75V14.875ZM2.125 23.375C2.125 22.8114 2.34888 22.2709 2.7474 21.8724C3.14591 21.4739 3.68641 21.25 4.25 21.25H8.5C9.06359 21.25 9.60409 21.4739 10.0026 21.8724C10.4011 22.2709 10.625 22.8114 10.625 23.375V29.75C10.625 30.3136 10.4011 30.8541 10.0026 31.2526C9.60409 31.6511 9.06359 31.875 8.5 31.875H4.25C3.68641 31.875 3.14591 31.6511 2.7474 31.2526C2.34888 30.8541 2.125 30.3136 2.125 29.75V23.375Z" fill="#AAAAAA"/>
</svg>
