<svg width="35" height="36" viewBox="0 0 35 36" fill="none" xmlns="http://www.w3.org/2000/svg">
<path d="M28.9583 30V13.698L17.375 6.49802L5.79167 13.698V30H11.5833V25.875C11.5833 24.2837 12.1935 22.7576 13.2797 21.6324C14.3658 20.5072 15.839 19.875 17.375 19.875C18.911 19.875 20.3842 20.5072 21.4703 21.6324C22.5565 22.7576 23.1667 24.2837 23.1667 25.875V30H28.9583ZM20.2708 33V25.875C20.2708 25.0794 19.9657 24.3163 19.4227 23.7537C18.8796 23.1911 18.143 22.875 17.375 22.875C16.607 22.875 15.8704 23.1911 15.3273 23.7537C14.7843 24.3163 14.4792 25.0794 14.4792 25.875V33H5.79167C5.02364 33 4.28708 32.6839 3.744 32.1213C3.20093 31.5587 2.89583 30.7957 2.89583 30V13.698C2.89583 13.18 3.02532 12.6707 3.2717 12.2199C3.51808 11.7691 3.87295 11.3921 4.30176 11.1255L15.8851 3.92551C16.3352 3.64576 16.8501 3.49799 17.375 3.49799C17.8999 3.49799 18.4148 3.64576 18.8649 3.92551L30.4482 11.1255C30.877 11.3921 31.2319 11.7691 31.4783 12.2199C31.7247 12.6707 31.8542 13.18 31.8542 13.698V30C31.8542 30.7957 31.5491 31.5587 31.006 32.1213C30.4629 32.6839 29.7264 33 28.9583 33H20.2708Z" fill="#AAAAAA"/>
</svg>
