<svg width="37" height="36" viewBox="0 0 37 36" fill="none" xmlns="http://www.w3.org/2000/svg">
<g clip-path="url(#clip0_1_687)">
<path d="M32.8609 29.8125C30.7617 26.1964 27.4017 23.4823 23.4249 22.1906C25.3311 21.0571 26.8124 19.3292 27.6412 17.2722C28.4701 15.2152 28.6006 12.943 28.0129 10.8046C27.4251 8.66618 26.1515 6.77991 24.3878 5.43553C22.624 4.09115 20.4676 3.36304 18.2499 3.36304C16.0323 3.36304 13.8759 4.09115 12.1121 5.43553C10.3484 6.77991 9.07479 8.66618 8.48703 10.8046C7.89926 12.943 8.02984 15.2152 8.85868 17.2722C9.68753 19.3292 11.1688 21.0571 13.0749 22.1906C9.09821 23.4823 5.73817 26.1964 3.63901 29.8125C3.53595 29.982 3.48145 30.1766 3.48145 30.375C3.48145 30.5734 3.53595 30.768 3.63901 30.9375C3.73517 31.1099 3.87606 31.2531 4.04684 31.3521C4.21762 31.4511 4.41194 31.5022 4.60933 31.5H31.8906C32.088 31.5022 32.2823 31.4511 32.4531 31.3521C32.6238 31.2531 32.7647 31.1099 32.8609 30.9375C32.9639 30.768 33.0185 30.5734 33.0185 30.375C33.0185 30.1766 32.9639 29.982 32.8609 29.8125Z" fill="url(#paint0_linear_1_687)"/>
</g>
<defs>
<linearGradient id="paint0_linear_1_687" x1="18.25" y1="3.36304" x2="18.25" y2="31.5001" gradientUnits="userSpaceOnUse">
<stop stop-color="#549994"/>
<stop offset="1" stop-color="#408782"/>
</linearGradient>
<clipPath id="clip0_1_687">
<rect width="36" height="36" fill="white" transform="translate(0.25)"/>
</clipPath>
</defs>
</svg>
