<svg width="37" height="36" viewBox="0 0 37 36" fill="none" xmlns="http://www.w3.org/2000/svg">
<g clip-path="url(#clip0_1_2758)">
<path d="M30.875 10.125H8.375C8.07663 10.125 7.79048 10.0065 7.5795 9.7955C7.36853 9.58452 7.25 9.29837 7.25 9C7.25 8.70163 7.36853 8.41548 7.5795 8.2045C7.79048 7.99353 8.07663 7.875 8.375 7.875H27.5C27.7984 7.875 28.0845 7.75647 28.2955 7.54549C28.5065 7.33452 28.625 7.04837 28.625 6.75C28.625 6.45163 28.5065 6.16548 28.2955 5.95451C28.0845 5.74353 27.7984 5.625 27.5 5.625H8.375C7.48103 5.6287 6.62474 5.98547 5.9926 6.6176C5.36047 7.24974 5.0037 8.10603 5 9V27C5.0037 27.894 5.36047 28.7503 5.9926 29.3824C6.62474 30.0145 7.48103 30.3713 8.375 30.375H30.875C31.4717 30.375 32.044 30.1379 32.466 29.716C32.8879 29.294 33.125 28.7217 33.125 28.125V12.375C33.125 11.7783 32.8879 11.206 32.466 10.784C32.044 10.3621 31.4717 10.125 30.875 10.125ZM25.8125 21.9375C25.4787 21.9375 25.1525 21.8385 24.875 21.6531C24.5975 21.4677 24.3812 21.2041 24.2535 20.8958C24.1257 20.5874 24.0923 20.2481 24.1574 19.9208C24.2225 19.5934 24.3833 19.2928 24.6193 19.0568C24.8553 18.8208 25.1559 18.66 25.4833 18.5949C25.8106 18.5298 26.1499 18.5632 26.4583 18.691C26.7666 18.8187 27.0302 19.035 27.2156 19.3125C27.401 19.59 27.5 19.9162 27.5 20.25C27.5 20.6976 27.3222 21.1268 27.0057 21.4432C26.6893 21.7597 26.2601 21.9375 25.8125 21.9375Z" fill="url(#paint0_linear_1_2758)"/>
</g>
<defs>
<linearGradient id="paint0_linear_1_2758" x1="19.0625" y1="5.625" x2="19.0625" y2="30.375" gradientUnits="userSpaceOnUse">
<stop stop-color="#549994"/>
<stop offset="1" stop-color="#408782"/>
</linearGradient>
<clipPath id="clip0_1_2758">
<rect width="36" height="36" fill="white" transform="translate(0.5)"/>
</clipPath>
</defs>
</svg>
